PathFileType	4	(X/Y/Z)	C:/Users/opensim2020/Desktop/walking_exp_matlab/subject03_walking08_straight_01.trc	
DataRate	CameraRate	NumFrames	NumMarkers	Units	OrigDataRate	OrigDataStartFrame	OrigNumFrames	
100.00	100.00	4	51	mm	100.00	764	451	
Frame#	Time	LFHD			RFHD			LBHD			RBHD			C7			T10			CLAV			STRN			RBAK			LSHO			LUPA			LELB			LFRM			LWRA			LWRB			LFIN			RSHO			RUPA			RELB			RFRM			RWRA			RWRB			RFIN			LASI			RASI			LPSI			RPSI			LTHI			LKNE			LTIB			LANK			LHEE			LTOE			RTHI			RKNE			RTIB			RANK			RHEE			RTOE			*39			*40			*41			*42			*43			*44			*45			*46			*47			*48			*49			*50			
		X1	Y1	Z1	X2	Y2	Z2	X3	Y3	Z3	X4	Y4	Z4	X5	Y5	Z5	X6	Y6	Z6	X7	Y7	Z7	X8	Y8	Z8	X9	Y9	Z9	X10	Y10	Z10	X11	Y11	Z11	X12	Y12	Z12	X13	Y13	Z13	X14	Y14	Z14	X15	Y15	Z15	X16	Y16	Z16	X17	Y17	Z17	X18	Y18	Z18	X19	Y19	Z19	X20	Y20	Z20	X21	Y21	Z21	X22	Y22	Z22	X23	Y23	Z23	X24	Y24	Z24	X25	Y25	Z25	X26	Y26	Z26	X27	Y27	Z27	X28	Y28	Z28	X29	Y29	Z29	X30	Y30	Z30	X31	Y31	Z31	X32	Y32	Z32	X33	Y33	Z33	X34	Y34	Z34	X35	Y35	Z35	X36	Y36	Z36	X37	Y37	Z37	X38	Y38	Z38	X39	Y39	Z39	X40	Y40	Z40	X41	Y41	Z41	X42	Y42	Z42	X43	Y43	Z43	X44	Y44	Z44	X45	Y45	Z45	X46	Y46	Z46	X47	Y47	Z47	X48	Y48	Z48	X49	Y49	Z49	X50	Y50	Z50	X51	Y51	Z51	

282	2.810	-1078.47693	256.35312	1612.81433	-947.15009	233.72879	1616.17834	-1095.27197	130.83031	1565.63147	-965.54993	113.80837	1568.69714	-1042.56689	90.74027	1411.17358	-1042.11243	45.25374	1100.25488	-1029.88782	212.17891	1332.74512	-1035.94641	249.43788	1166.51855	-951.93530	25.83516	1237.29700	-1187.72681	185.50246	1372.69849	-1268.28345	210.73717	1183.10437	-1285.55640	243.77773	1066.35669	-1281.25671	308.09912	953.83636	-1247.04199	361.66675	849.39465	-1299.69165	343.47055	846.77448	-1287.91077	387.80786	776.19299	-874.17053	152.63377	1354.11462	-802.05847	143.68587	1131.67371	-788.49213	158.49319	1019.84448	-788.02808	178.40823	884.51532	-823.80603	212.96370	791.15045	-781.38086	180.37260	784.32471	-790.11450	206.40097	715.36230	-1151.22974	210.35439	932.12439	-914.26233	206.69064	933.88623	-1102.98389	47.30260	956.61743	-954.01599	46.36533	959.71246	-1181.24438	126.14641	633.16760	-1139.29797	104.62243	457.23193	-1138.52942	28.49522	275.31891	-1094.41675	-15.47306	68.57718	-1056.82019	-57.62752	34.56107	-1079.97998	135.64142	29.97602	-861.34338	214.93753	642.07147	-894.65887	293.35001	479.16174	-887.40527	289.20917	291.00348	-926.32959	316.33633	74.39176	-982.12103	280.53445	38.95863	-937.09314	458.41721	47.16592	-1043.83594	164.67734	1669.25159																																	 
283	2.820	-1077.30103	263.40152	1611.95837	-945.97412	240.49098	1614.88562	-1094.35840	137.95697	1564.60657	-964.67175	120.76945	1567.34631	-1041.79321	97.93786	1410.19458	-1041.53748	51.99089	1099.31836	-1029.29919	219.20393	1331.57605	-1035.65088	256.42593	1165.39673	-951.27844	32.79081	1236.28748	-1186.97644	192.57727	1371.66321	-1267.59375	217.81709	1182.17969	-1284.94714	250.99399	1065.46887	-1280.38379	316.16571	953.53430	-1245.82715	370.80719	849.79993	-1298.12256	352.38126	846.61102	-1286.43359	397.58438	776.76367	-873.45282	159.80815	1352.80273	-802.18762	150.24191	1130.07861	-789.00482	164.61147	1018.06665	-788.80658	183.56859	882.57544	-825.00909	217.62866	789.09344	-782.57800	184.96750	782.35425	-791.53632	210.42502	713.17517	-1151.09460	217.28026	931.27887	-913.97699	214.07423	932.78967	-1102.41431	54.22620	955.26300	-953.44781	53.60682	958.25940	-1181.01440	132.07649	632.49078	-1139.32178	109.09551	456.64340	-1138.58850	31.07959	275.39111	-1094.49695	-15.15835	69.07403	-1056.93445	-57.67889	35.31820	-1079.96863	135.71709	29.93533	-860.84406	220.96786	640.54486	-894.68964	299.39572	477.55469	-887.08679	300.43655	290.03122	-925.45605	334.60654	74.29906	-981.37183	299.99533	38.12416	-936.33356	477.85611	50.22288	-1040.56213	171.11420	1671.89819																																	 
284	2.830	-1076.13257	270.61160	1611.05505	-944.82263	247.65622	1613.81445	-1093.39441	145.20981	1563.64246	-963.73853	127.89313	1566.19507	-1040.94360	105.18193	1409.24561	-1040.90869	58.90061	1098.35327	-1028.66284	226.34691	1330.44763	-1035.25378	263.27625	1164.15369	-950.60944	39.88345	1235.25647	-1186.26746	199.66399	1370.66980	-1266.79126	224.91162	1181.22168	-1284.09314	258.05344	1064.58154	-1279.38440	323.97467	953.08954	-1244.60376	379.71146	850.11798	-1296.92993	360.98755	846.50861	-1284.83167	406.95715	777.12689	-872.72955	167.10193	1351.46301	-802.19568	156.87437	1128.43359	-789.48816	170.72701	1016.29449	-789.72473	188.91612	880.67889	-826.25061	222.42427	787.04401	-783.83411	189.63820	780.40497	-793.34552	214.66888	711.03442	-1150.83411	224.29150	930.37128	-913.67950	221.79224	931.80725	-1101.78406	61.29500	953.82764	-952.81390	60.92092	956.86548	-1180.85205	137.94986	631.87079	-1139.31909	113.65366	456.17993	-1138.68372	33.68634	275.55032	-1094.66516	-14.78490	69.66373	-1057.09583	-57.62959	36.28324	-1079.94592	135.76379	29.86065	-860.35156	227.19756	639.14008	-894.64795	305.41794	475.94623	-886.75763	310.88174	289.20563	-924.62262	351.41794	74.34081	-980.41711	318.13892	37.22187	-935.62366	495.73605	53.66228	-1039.29883	178.15836	1670.92847																																	 
285	2.840	-1074.94971	277.80878	1610.27136	-943.62354	254.81529	1612.74475	-1092.39893	152.52437	1562.69604	-962.73468	135.10252	1564.86853	-1039.96545	112.45380	1408.34290	-1040.18335	65.78021	1097.47412	-1027.94031	233.55844	1329.33496	-1034.83533	270.39340	1163.02991	-949.86481	47.10061	1234.27124	-1185.45557	206.77844	1369.68787	-1265.83337	231.82210	1180.31946	-1283.24060	265.07071	1063.61365	-1278.39587	331.61890	952.65344	-1243.21301	388.32236	850.27917	-1295.46985	369.31409	846.19312	-1283.20276	415.98810	777.37036	-871.93042	174.49246	1350.12732	-802.19897	163.74597	1126.87122	-789.95172	177.06261	1014.52551	-790.82996	194.44066	878.78735	-827.44604	227.18208	785.02747	-785.06500	194.46725	778.46906	-794.93317	218.93712	708.87738	-1150.68494	231.35783	929.54755	-913.31989	229.52206	930.89301	-1101.02234	68.42960	952.47083	-952.09070	68.38546	955.52692	-1180.68677	143.78160	631.30603	-1139.39612	118.25739	455.70294	-1138.76746	36.42645	275.74487	-1094.84460	-14.36778	70.35790	-1057.22595	-57.54350	37.28562	-1079.95679	135.79779	29.81628	-860.02478	233.65361	637.94464	-894.62964	311.47476	474.39255	-886.31360	320.81647	288.47153	-923.69226	366.85873	74.66142	-979.58197	334.58640	36.62707	-935.00873	511.99564	56.85394	-1040.22070	185.75655	1666.13135																																	 
